<svg width="21.000000" height="17.000000" viewBox="0 0 21 17" fill="none" xmlns="http://www.w3.org/2000/svg" xmlns:xlink="http://www.w3.org/1999/xlink">
	<desc>
			Created with Pixso.
	</desc>
	<defs/>
	<path id="Vector" d="M-0.32 15.56C-0.32 15.31 -0.22 15.07 -0.04 14.89C0.13 14.72 0.37 14.62 0.62 14.62L19.37 14.62C19.62 14.62 19.86 14.72 20.03 14.89C20.21 15.07 20.31 15.31 20.31 15.56C20.31 15.81 20.21 16.04 20.03 16.22C19.86 16.4 19.62 16.5 19.37 16.5L0.62 16.5C0.37 16.5 0.13 16.4 -0.04 16.22C-0.22 16.04 -0.32 15.81 -0.32 15.56ZM-0.32 8.06C-0.32 7.81 -0.22 7.57 -0.04 7.39C0.13 7.22 0.37 7.12 0.62 7.12L19.37 7.12C19.62 7.12 19.86 7.22 20.03 7.39C20.21 7.57 20.31 7.81 20.31 8.06C20.31 8.31 20.21 8.54 20.03 8.72C19.86 8.9 19.62 9 19.37 9L0.62 9C0.37 9 0.13 8.9 -0.04 8.72C-0.22 8.54 -0.32 8.31 -0.32 8.06ZM-0.32 0.56C-0.32 0.31 -0.22 0.07 -0.04 -0.11C0.13 -0.28 0.37 -0.38 0.62 -0.38L19.37 -0.38C19.62 -0.38 19.86 -0.28 20.03 -0.11C20.21 0.07 20.31 0.31 20.31 0.56C20.31 0.81 20.21 1.04 20.03 1.22C19.86 1.4 19.62 1.5 19.37 1.5L0.62 1.5C0.37 1.5 0.13 1.4 -0.04 1.22C-0.22 1.04 -0.32 0.81 -0.32 0.56Z" fill="#4C5866" fill-opacity="1.000000" fill-rule="evenodd"/>
</svg>
